<?xml version="1.0" encoding="UTF-8" standalone="no"?>
<!DOCTYPE svg PUBLIC "-//W3C//DTD SVG 1.1//EN" "http://www.w3.org/Graphics/SVG/1.1/DTD/svg11.dtd">
<svg width="100%" height="100%" viewBox="0 0 241 194" version="1.1" xmlns="http://www.w3.org/2000/svg" xmlns:xlink="http://www.w3.org/1999/xlink" xml:space="preserve" xmlns:serif="http://www.serif.com/" style="fill-rule:evenodd;clip-rule:evenodd;stroke-linejoin:round;stroke-miterlimit:2;">
    <g transform="matrix(1.2857,0,0,1.2857,-34.3486,-27.8364)">
        <path d="M32.247,67.99L32.241,67.99C32.241,48.895 39.748,38.213 58.615,35.483C72.027,33.436 89.76,33.208 114.538,33.208C151.372,33.208 159.102,33.665 172.058,34.799C195.024,37.523 208.208,48.667 208.208,69.808L208.208,73.217C208.208,92.09 192.521,106.864 174.332,106.864L166.147,106.864L164.784,112.547C162.966,121.417 159.558,128.462 155.693,134.829C147.736,147.329 133.411,161.653 103.857,161.653L96.812,161.653C74.302,161.653 54.523,153.924 43.613,133.689C34.065,116.184 32.247,97.317 32.247,67.99ZM54.532,82.32C54.532,95.732 62.033,107.326 71.581,116.424C77.948,122.562 87.952,128.93 94.769,133.022C96.815,134.157 98.861,134.841 101.136,134.841C103.866,134.841 106.134,134.157 107.959,133.022C114.782,128.93 124.779,122.562 130.919,116.424C140.694,107.332 148.195,95.738 148.195,82.32C148.195,67.767 137.286,54.812 121.599,54.812C112.28,54.812 105.912,59.588 101.136,66.177C96.815,59.582 90.226,54.812 80.9,54.812C64.986,54.812 54.526,67.767 54.526,82.32L54.532,82.32ZM166.158,83.687C166.161,86.414 168.207,88.457 171.841,88.457C183.435,88.457 189.802,81.862 189.802,70.952C189.802,60.043 183.435,53.219 171.841,53.219C168.204,53.219 166.158,55.266 166.158,57.996L166.158,83.68L166.158,83.687Z" style="fill:rgb(229,56,59);"/>
    </g>
</svg>
