<?xml version="1.0" encoding="UTF-8" standalone="no"?>
<!-- Created with Inkscape (http://www.inkscape.org/) -->

<svg
   width="282.80377mm"
   height="23.444201mm"
   viewBox="0 0 282.80377 23.444201"
   version="1.1"
   id="svg5"
   xmlns="http://www.w3.org/2000/svg"
   xmlns:svg="http://www.w3.org/2000/svg">
  <defs
     id="defs2" />
  <g
     id="layer1"
     transform="translate(-77.904903,-151.82544)">
    <g
       aria-label="zetvuemgm0@gmail.com"
       id="text518"
       style="font-size:25.4px;line-height:0;font-family:Outfit;-inkscape-font-specification:Outfit;fill:#E5383B;stroke-width:1.05833">
      <path
         d="m 77.904903,168.71644 7.1628,-9.5758 h 2.6924 l -7.1628,9.5758 z m 0,1.2446 v -1.2446 l 2.032,-0.8382 h 7.6708 v 2.0828 z m 0.4318,-9.9822 v -2.0828 h 9.4234 v 1.2446 l -2.1082,0.8382 z"
         id="path570" />
      <path
         d="m 95.583344,170.21504 q -1.8034,0 -3.2512,-0.8128 -1.4478,-0.8382 -2.286,-2.2606 -0.8382,-1.4224 -0.8382,-3.2258 0,-1.778 0.8128,-3.2004 0.8382,-1.4224 2.2352,-2.2352 1.4224,-0.8382 3.175,-0.8382 1.6764,0 2.9464,0.762 1.2954,0.762 2.006596,2.1082 0.7366,1.3462 0.7366,3.048 0,0.254 -0.0254,0.5588 -0.0254,0.2794 -0.1016,0.6604 H 90.808144 v -1.905 h 8.9662 l -0.8382,0.7366 q 0,-1.2192 -0.4318,-2.0574 -0.4318,-0.8636 -1.2192,-1.3208 -0.7874,-0.4826 -1.905,-0.4826 -1.1684,0 -2.0574,0.508 -0.889,0.508 -1.3716,1.4224 -0.4826,0.9144 -0.4826,2.159 0,1.27 0.508,2.2352 0.508,0.9398 1.4478,1.4732 0.9398,0.508 2.159,0.508 1.016,0 1.8542,-0.3556 0.8636,-0.3556 1.4732,-1.0668 l 1.473196,1.4986 q -0.863596,1.016 -2.133596,1.5494 -1.2446,0.5334 -2.667,0.5334 z"
         id="path572" />
      <path
         d="m 105.09563,169.96104 v -17.1196 h 2.286 v 17.1196 z m -2.9718,-9.9822 v -2.0828 h 8.2296 v 2.0828 z"
         id="path574" />
      <path
         d="m 116.72884,169.96104 -5.5372,-12.065 h 2.54 l 4.445,10.1854 h -1.4732 l 4.4704,-10.1854 h 2.4384 l -5.5372,12.065 z"
         id="path576" />
      <path
         d="m 130.41943,170.21504 q -1.4732,0 -2.667,-0.6604 -1.1684,-0.6858 -1.8288,-1.8796 -0.6604,-1.1938 -0.6604,-2.7686 v -7.0104 h 2.286 v 6.9088 q 0,0.9906 0.3302,1.7272 0.3556,0.7112 1.016,1.0922 0.6604,0.381 1.5494,0.381 1.3462,0 2.1082,-0.8382 0.762,-0.8636 0.762,-2.3622 v -6.9088 h 2.286 v 7.0104 q 0,1.5748 -0.6604,2.7686 -0.6604,1.1938 -1.8288,1.8796 -1.143,0.6604 -2.6924,0.6604 z"
         id="path578" />
      <path
         d="m 144.26245,170.21504 q -1.8034,0 -3.2512,-0.8128 -1.4478,-0.8382 -2.286,-2.2606 -0.8382,-1.4224 -0.8382,-3.2258 0,-1.778 0.8128,-3.2004 0.8382,-1.4224 2.2352,-2.2352 1.4224,-0.8382 3.175,-0.8382 1.6764,0 2.9464,0.762 1.2954,0.762 2.0066,2.1082 0.7366,1.3462 0.7366,3.048 0,0.254 -0.0254,0.5588 -0.0254,0.2794 -0.1016,0.6604 h -10.1854 v -1.905 h 8.9662 l -0.8382,0.7366 q 0,-1.2192 -0.4318,-2.0574 -0.4318,-0.8636 -1.2192,-1.3208 -0.7874,-0.4826 -1.905,-0.4826 -1.1684,0 -2.0574,0.508 -0.889,0.508 -1.3716,1.4224 -0.4826,0.9144 -0.4826,2.159 0,1.27 0.508,2.2352 0.508,0.9398 1.4478,1.4732 0.9398,0.508 2.159,0.508 1.016,0 1.8542,-0.3556 0.8636,-0.3556 1.4732,-1.0668 l 1.4732,1.4986 q -0.8636,1.016 -2.1336,1.5494 -1.2446,0.5334 -2.667,0.5334 z"
         id="path580" />
      <path
         d="m 152.28883,169.96104 v -12.065 h 2.286 v 12.065 z m 8.1788,0 v -7.2898 q 0,-1.3462 -0.8382,-2.1082 -0.8128,-0.7874 -2.0574,-0.7874 -0.8382,0 -1.524,0.3556 -0.6604,0.3556 -1.0668,0.9906 -0.381,0.635 -0.381,1.524 l -0.9652,-0.4572 q 0,-1.3716 0.6096,-2.3876 0.6096,-1.016 1.651,-1.5748 1.0414,-0.5842 2.3114,-0.5842 1.2954,0 2.3114,0.5588 1.0414,0.5588 1.6256,1.5748 0.6096,1.016 0.6096,2.413 v 7.7724 z m 8.128,0 v -7.2898 q 0,-1.3462 -0.8382,-2.1082 -0.8128,-0.7874 -2.0574,-0.7874 -0.8128,0 -1.4986,0.3556 -0.6858,0.3556 -1.0922,0.9906 -0.381,0.635 -0.381,1.524 l -1.3208,-0.4572 q 0.1016,-1.397 0.762,-2.3876 0.6604,-1.016 1.7272,-1.5748 1.0668,-0.5842 2.3622,-0.5842 1.2954,0 2.3368,0.5588 1.0414,0.5588 1.651,1.5748 0.635,1.016 0.635,2.4384 v 7.747 z"
         id="path582" />
      <path
         d="m 179.00961,175.26964 q -1.8542,0 -3.302,-0.6858 -1.4224,-0.6858 -2.286,-1.9304 l 1.4732,-1.4986 q 0.7366,0.9398 1.7526,1.4224 1.016,0.508 2.413,0.508 1.8542,0 2.921,-0.9906 1.0922,-0.9652 1.0922,-2.6162 v -2.9972 l 0.4064,-2.7178 -0.4064,-2.6924 v -3.175 h 2.286 v 11.5824 q 0,1.7272 -0.8128,3.0226 -0.7874,1.2954 -2.2352,2.032 -1.4224,0.7366 -3.302,0.7366 z m 0,-5.5118 q -1.651,0 -2.9718,-0.7874 -1.2954,-0.7874 -2.0574,-2.159 -0.762,-1.397 -0.762,-3.1242 0,-1.7272 0.762,-3.0734 0.762,-1.3716 2.0574,-2.159 1.3208,-0.8128 2.9718,-0.8128 1.4224,0 2.5146,0.5588 1.0922,0.5588 1.7272,1.5748 0.6604,0.9906 0.7112,2.3368 v 3.2004 q -0.0762,1.3208 -0.7366,2.3368 -0.635,0.9906 -1.7272,1.5494 -1.0922,0.5588 -2.4892,0.5588 z m 0.4572,-2.159 q 1.1176,0 1.9558,-0.4826 0.8636,-0.4826 1.3208,-1.3462 0.4572,-0.889 0.4572,-2.0574 0,-1.1684 -0.4826,-2.032 -0.4572,-0.889 -1.2954,-1.3716 -0.8382,-0.508 -1.9812,-0.508 -1.143,0 -2.0066,0.508 -0.8636,0.4826 -1.3716,1.3716 -0.4826,0.8636 -0.4826,2.0066 0,1.143 0.4826,2.032 0.508,0.889 1.3716,1.397 0.889,0.4826 2.032,0.4826 z"
         id="path584" />
      <path
         d="m 188.71243,169.96104 v -12.065 h 2.286 v 12.065 z m 8.1788,0 v -7.2898 q 0,-1.3462 -0.8382,-2.1082 -0.8128,-0.7874 -2.0574,-0.7874 -0.8382,0 -1.524,0.3556 -0.6604,0.3556 -1.0668,0.9906 -0.381,0.635 -0.381,1.524 l -0.9652,-0.4572 q 0,-1.3716 0.6096,-2.3876 0.6096,-1.016 1.651,-1.5748 1.0414,-0.5842 2.3114,-0.5842 1.2954,0 2.3114,0.5588 1.0414,0.5588 1.6256,1.5748 0.6096,1.016 0.6096,2.413 v 7.7724 z m 8.128,0 v -7.2898 q 0,-1.3462 -0.8382,-2.1082 -0.8128,-0.7874 -2.0574,-0.7874 -0.8128,0 -1.4986,0.3556 -0.6858,0.3556 -1.0922,0.9906 -0.381,0.635 -0.381,1.524 l -1.3208,-0.4572 q 0.1016,-1.397 0.762,-2.3876 0.6604,-1.016 1.7272,-1.5748 1.0668,-0.5842 2.3622,-0.5842 1.2954,0 2.3368,0.5588 1.0414,0.5588 1.651,1.5748 0.635,1.016 0.635,2.4384 v 7.747 z"
         id="path586" />
      <path
         d="m 217.13501,170.21504 q -1.9812,0 -3.6322,-1.1176 -1.6256,-1.1176 -2.5908,-3.1496 -0.9652,-2.0574 -0.9652,-4.826 0,-2.7686 0.9398,-4.8006 0.9652,-2.032 2.5908,-3.1242 1.6256,-1.1176 3.5814,-1.1176 2.0066,0 3.6322,1.1176 1.6256,1.0922 2.5654,3.1242 0.9652,2.032 0.9652,4.826 0,2.7686 -0.9652,4.826 -0.9398,2.032 -2.5654,3.1496 -1.6002,1.0922 -3.556,1.0922 z m -0.0508,-2.2606 q 1.397,0 2.4384,-0.762 1.0668,-0.7874 1.6764,-2.3114 0.6096,-1.524 0.6096,-3.7592 0,-2.2352 -0.6096,-3.7338 -0.6096,-1.524 -1.6764,-2.286 -1.0668,-0.7874 -2.4638,-0.7874 -1.3716,0 -2.4384,0.7874 -1.0668,0.762 -1.6764,2.286 -0.5842,1.4986 -0.5842,3.7338 0,2.2352 0.5842,3.7592 0.6096,1.524 1.6764,2.3114 1.0668,0.762 2.4638,0.762 z"
         id="path588" />
      <path
         d="m 234.55941,167.67504 q -0.9906,0 -1.8034,-0.4826 -0.7874,-0.508 -1.2954,-1.3462 -0.4826,-0.8382 -0.4826,-1.8796 0,-1.0414 0.4826,-1.8796 0.508,-0.8636 1.2954,-1.3462 0.8128,-0.508 1.8034,-0.508 1.2192,0 1.9812,0.6096 0.7874,0.5842 0.7874,1.7272 v 2.7686 q 0,1.1176 -0.762,1.7272 -0.762,0.6096 -2.0066,0.6096 z m 0.1016,-1.6002 q 0.9144,0 1.4478,-0.5842 0.5588,-0.6096 0.5588,-1.5494 0,-0.9652 -0.5588,-1.5494 -0.5334,-0.5842 -1.4478,-0.5842 -0.8382,0 -1.4224,0.6096 -0.5588,0.5842 -0.5588,1.524 0,0.9398 0.5588,1.5494 0.5588,0.5842 1.4224,0.5842 z m 2.1336,1.4224 v -1.8796 l 0.254,-1.778 -0.254,-1.7018 v -1.7526 h 1.651 v 7.112 z m 2.4638,1.4986 1.27,1.2954 q -1.1176,0.9652 -2.5146,1.4478 -1.397,0.508 -2.9972,0.508 -1.7272,0 -3.2512,-0.635 -1.4986,-0.6096 -2.6162,-1.7272 -1.1176,-1.1176 -1.7526,-2.6162 -0.635,-1.524 -0.635,-3.302 0,-1.778 0.635,-3.2766 0.6604,-1.524 1.8034,-2.6416 1.143,-1.143 2.667,-1.778 1.5494,-0.635 3.302,-0.635 2.3368,0 4.1148,1.0668 1.8034,1.0668 2.8194,2.921 1.0414,1.8542 1.0414,4.2672 0,1.0922 -0.2286,1.9812 -0.2032,0.8636 -0.6858,1.6256 l -1.9558,-0.1016 q 0.3556,-0.508 0.5588,-1.016 0.2286,-0.5334 0.3302,-1.1684 0.1016,-0.635 0.1016,-1.4478 0,-2.0066 -0.7366,-3.4036 -0.7112,-1.4224 -2.0828,-2.159 -1.3462,-0.762 -3.2512,-0.762 -1.9304,0 -3.4036,0.8128 -1.4478,0.8128 -2.2606,2.286 -0.7874,1.4478 -0.7874,3.4544 0,1.9812 0.762,3.429 0.7874,1.4478 2.2098,2.2606 1.4224,0.7874 3.2512,0.7874 1.3462,0 2.413,-0.381 1.0668,-0.3556 1.8796,-1.0922 z m -1.7526,-2.9972 h 4.7244 v 1.4986 h -4.7244 z"
         id="path590" />
      <path
         d="m 251.14562,175.26964 q -1.8542,0 -3.302,-0.6858 -1.4224,-0.6858 -2.286,-1.9304 l 1.4732,-1.4986 q 0.7366,0.9398 1.7526,1.4224 1.016,0.508 2.413,0.508 1.8542,0 2.921,-0.9906 1.0922,-0.9652 1.0922,-2.6162 v -2.9972 l 0.4064,-2.7178 -0.4064,-2.6924 v -3.175 h 2.286 v 11.5824 q 0,1.7272 -0.8128,3.0226 -0.7874,1.2954 -2.2352,2.032 -1.4224,0.7366 -3.302,0.7366 z m 0,-5.5118 q -1.651,0 -2.9718,-0.7874 -1.2954,-0.7874 -2.0574,-2.159 -0.762,-1.397 -0.762,-3.1242 0,-1.7272 0.762,-3.0734 0.762,-1.3716 2.0574,-2.159 1.3208,-0.8128 2.9718,-0.8128 1.4224,0 2.5146,0.5588 1.0922,0.5588 1.7272,1.5748 0.6604,0.9906 0.7112,2.3368 v 3.2004 q -0.0762,1.3208 -0.7366,2.3368 -0.635,0.9906 -1.7272,1.5494 -1.0922,0.5588 -2.4892,0.5588 z m 0.4572,-2.159 q 1.1176,0 1.9558,-0.4826 0.8636,-0.4826 1.3208,-1.3462 0.4572,-0.889 0.4572,-2.0574 0,-1.1684 -0.4826,-2.032 -0.4572,-0.889 -1.2954,-1.3716 -0.8382,-0.508 -1.9812,-0.508 -1.143,0 -2.0066,0.508 -0.8636,0.4826 -1.3716,1.3716 -0.4826,0.8636 -0.4826,2.0066 0,1.143 0.4826,2.032 0.508,0.889 1.3716,1.397 0.889,0.4826 2.032,0.4826 z"
         id="path592" />
      <path
         d="m 260.84844,169.96104 v -12.065 h 2.286 v 12.065 z m 8.1788,0 v -7.2898 q 0,-1.3462 -0.8382,-2.1082 -0.8128,-0.7874 -2.0574,-0.7874 -0.8382,0 -1.524,0.3556 -0.6604,0.3556 -1.0668,0.9906 -0.381,0.635 -0.381,1.524 l -0.9652,-0.4572 q 0,-1.3716 0.6096,-2.3876 0.6096,-1.016 1.651,-1.5748 1.0414,-0.5842 2.3114,-0.5842 1.2954,0 2.3114,0.5588 1.0414,0.5588 1.6256,1.5748 0.6096,1.016 0.6096,2.413 v 7.7724 z m 8.12799,0 v -7.2898 q 0,-1.3462 -0.8382,-2.1082 -0.8128,-0.7874 -2.0574,-0.7874 -0.81279,0 -1.49859,0.3556 -0.6858,0.3556 -1.0922,0.9906 -0.381,0.635 -0.381,1.524 l -1.3208,-0.4572 q 0.1016,-1.397 0.762,-2.3876 0.6604,-1.016 1.7272,-1.5748 1.0668,-0.5842 2.36219,-0.5842 1.2954,0 2.3368,0.5588 1.0414,0.5588 1.651,1.5748 0.635,1.016 0.635,2.4384 v 7.747 z"
         id="path594" />
      <path
         d="m 287.69622,170.21504 q -1.651,0 -2.9972,-0.8128 -1.3462,-0.8382 -2.1336,-2.2606 -0.762,-1.4224 -0.762,-3.2004 0,-1.778 0.762,-3.2004 0.7874,-1.4224 2.1082,-2.2606 1.3462,-0.8382 3.0226,-0.8382 1.3716,0 2.4384,0.5842 1.0922,0.5588 1.7526,1.5748 0.6604,0.9906 0.7366,2.3114 v 3.6322 q -0.0762,1.2954 -0.7366,2.3114 -0.635,1.016 -1.7272,1.6002 -1.0668,0.5588 -2.4638,0.5588 z m 0.381,-2.159 q 1.7018,0 2.7432,-1.143 1.0414,-1.1684 1.0414,-2.9718 0,-1.2446 -0.4826,-2.159 -0.4572,-0.9398 -1.3208,-1.4478 -0.8636,-0.5334 -2.0066,-0.5334 -1.143,0 -2.032,0.5334 -0.8636,0.5334 -1.3716,1.4732 -0.4826,0.9144 -0.4826,2.1082 0,1.2192 0.4826,2.159 0.508,0.9144 1.397,1.4478 0.889,0.5334 2.032,0.5334 z m 3.6322,1.905 v -3.2512 l 0.4318,-2.9464 -0.4318,-2.921 v -2.9464 h 2.286 v 12.065 z"
         id="path596" />
      <path
         d="m 297.37364,169.96104 v -12.065 h 2.286 v 12.065 z m 1.143,-14.478 q -0.635,0 -1.0414,-0.4064 -0.4064,-0.4318 -0.4064,-1.0668 0,-0.6096 0.4064,-1.016 0.4064,-0.4318 1.0414,-0.4318 0.635,0 1.0414,0.4318 0.4064,0.4064 0.4064,1.016 0,0.635 -0.4064,1.0668 -0.4064,0.4064 -1.0414,0.4064 z"
         id="path598" />
      <path
         d="m 303.03786,169.96104 v -18.1356 h 2.286 v 18.1356 z"
         id="path600" />
      <path
         d="m 310.68327,170.21504 q -0.7366,0 -1.1938,-0.4826 -0.4572,-0.508 -0.4572,-1.1684 0,-0.7366 0.4572,-1.1938 0.4572,-0.4826 1.1938,-0.4826 0.7112,0 1.1684,0.4826 0.4826,0.4572 0.4826,1.1938 0,0.6604 -0.4826,1.1684 -0.4572,0.4826 -1.1684,0.4826 z"
         id="path602" />
      <path
         d="m 321.07191,170.21504 q -1.778,0 -3.2258,-0.8382 -1.4224,-0.8382 -2.2606,-2.2606 -0.8128,-1.4478 -0.8128,-3.2004 0,-1.778 0.8128,-3.2004 0.8382,-1.4224 2.2606,-2.2352 1.4478,-0.8382 3.2258,-0.8382 1.397,0 2.59079,0.5334 1.1938,0.508 2.0574,1.4986 l -1.524,1.524 q -0.5588,-0.6604 -1.37159,-0.9906 -0.7874,-0.3556 -1.7526,-0.3556 -1.143,0 -2.032,0.5334 -0.889,0.508 -1.397,1.4224 -0.508,0.9144 -0.508,2.1082 0,1.1938 0.508,2.1082 0.508,0.9144 1.397,1.4478 0.889,0.5334 2.032,0.5334 0.9652,0 1.7526,-0.3302 0.81279,-0.3556 1.39699,-1.016 l 1.4986,1.524 q -0.8382,0.9652 -2.0574,1.4986 -1.19379,0.5334 -2.59079,0.5334 z"
         id="path604" />
      <path
         d="m 333.25126,170.21504 q -1.778,0 -3.2004,-0.8382 -1.4224,-0.8382 -2.2606,-2.2606 -0.8382,-1.4478 -0.8382,-3.2258 0,-1.7526 0.8382,-3.1496 0.8382,-1.4224 2.2606,-2.2606 1.4224,-0.8382 3.2004,-0.8382 1.7526,0 3.175,0.8382 1.4478,0.8128 2.286,2.2352 0.8382,1.4224 0.8382,3.175 0,1.778 -0.8382,3.2258 -0.8382,1.4224 -2.286,2.2606 -1.4224,0.8382 -3.175,0.8382 z m 0,-2.2098 q 1.143,0 2.032,-0.5334 0.889,-0.5334 1.397,-1.4478 0.508,-0.9398 0.508,-2.1336 0,-1.1684 -0.5334,-2.0828 -0.508,-0.9144 -1.397,-1.4224 -0.8636,-0.5334 -2.0066,-0.5334 -1.143,0 -2.032,0.5334 -0.889,0.508 -1.397,1.4224 -0.508,0.9144 -0.508,2.0828 0,1.1938 0.508,2.1336 0.508,0.9144 1.397,1.4478 0.889,0.5334 2.032,0.5334 z"
         id="path606" />
      <path
         d="m 342.11586,169.96104 v -12.065 h 2.286 v 12.065 z m 8.1788,0 v -7.2898 q 0,-1.3462 -0.8382,-2.1082 -0.8128,-0.7874 -2.0574,-0.7874 -0.8382,0 -1.524,0.3556 -0.6604,0.3556 -1.0668,0.9906 -0.381,0.635 -0.381,1.524 l -0.9652,-0.4572 q 0,-1.3716 0.6096,-2.3876 0.6096,-1.016 1.651,-1.5748 1.0414,-0.5842 2.3114,-0.5842 1.2954,0 2.3114,0.5588 1.0414,0.5588 1.6256,1.5748 0.6096,1.016 0.6096,2.413 v 7.7724 z m 8.128,0 v -7.2898 q 0,-1.3462 -0.8382,-2.1082 -0.8128,-0.7874 -2.0574,-0.7874 -0.8128,0 -1.4986,0.3556 -0.6858,0.3556 -1.0922,0.9906 -0.381,0.635 -0.381,1.524 l -1.3208,-0.4572 q 0.1016,-1.397 0.762,-2.3876 0.6604,-1.016 1.7272,-1.5748 1.0668,-0.5842 2.3622,-0.5842 1.2954,0 2.3368,0.5588 1.0414,0.5588 1.651,1.5748 0.635,1.016 0.635,2.4384 v 7.747 z"
         id="path608" />
    </g>
  </g>
</svg>
