<?xml version="1.0" encoding="UTF-8" standalone="no"?>
<!DOCTYPE svg PUBLIC "-//W3C//DTD SVG 1.1//EN" "http://www.w3.org/Graphics/SVG/1.1/DTD/svg11.dtd">
<svg width="100%" height="100%" viewBox="0 0 1309 145" version="1.1" xmlns="http://www.w3.org/2000/svg" xmlns:xlink="http://www.w3.org/1999/xlink" xml:space="preserve" xmlns:serif="http://www.serif.com/" style="fill-rule:evenodd;clip-rule:evenodd;stroke-linejoin:round;stroke-miterlimit:2;">
    <g transform="matrix(12,0,0,12,-302.004,-1469.79)">
        <path d="M28.311,126.503L25.167,126.503L25.167,125.435L29.763,125.435L29.763,126.443L26.604,130.667L29.835,130.667L29.835,131.735L25.167,131.735L25.167,130.703L28.311,126.503ZM31.975,128.879C32.009,129.191 32.096,129.471 32.235,129.719C32.419,130.039 32.679,130.287 33.015,130.463C33.351,130.639 33.739,130.727 34.179,130.727C34.491,130.727 34.779,130.675 35.043,130.571C35.315,130.467 35.607,130.279 35.919,130.007L36.543,130.883C36.351,131.075 36.115,131.243 35.835,131.387C35.563,131.531 35.271,131.647 34.959,131.735C34.655,131.815 34.355,131.855 34.059,131.855C33.411,131.855 32.835,131.719 32.331,131.447C31.835,131.167 31.443,130.787 31.155,130.307C30.875,129.827 30.735,129.275 30.735,128.651C30.735,128.155 30.815,127.703 30.975,127.295C31.135,126.887 31.355,126.535 31.635,126.239C31.923,125.935 32.263,125.703 32.655,125.543C33.055,125.375 33.487,125.291 33.951,125.291C34.359,125.291 34.739,125.371 35.091,125.531C35.443,125.683 35.747,125.895 36.003,126.167C36.267,126.439 36.467,126.763 36.603,127.139C36.747,127.507 36.815,127.911 36.807,128.351L36.795,128.879L31.975,128.879ZM32.023,127.895L35.547,127.895L35.547,127.811C35.523,127.547 35.435,127.311 35.283,127.103C35.131,126.895 34.939,126.731 34.707,126.611C34.475,126.491 34.223,126.431 33.951,126.431C33.519,126.431 33.155,126.515 32.859,126.683C32.563,126.843 32.339,127.083 32.187,127.403C32.115,127.55 32.061,127.714 32.023,127.895ZM38.931,126.635L37.623,126.635L37.623,125.435L38.931,125.435L38.931,123.827L40.167,123.827L40.167,125.435L41.631,125.435L41.631,126.635L40.167,126.635L40.167,131.735L38.931,131.735L38.931,126.635ZM45.322,129.932L47.235,125.435L48.507,125.435L45.711,131.735L44.823,131.735L42.159,125.435L43.491,125.435L45.322,129.932ZM53.931,130.727C53.853,130.849 53.761,130.965 53.655,131.075C53.431,131.315 53.163,131.507 52.851,131.651C52.539,131.787 52.203,131.855 51.843,131.855C51.395,131.855 51.003,131.751 50.667,131.543C50.339,131.335 50.083,131.043 49.899,130.667C49.723,130.291 49.635,129.843 49.635,129.323L49.635,125.435L50.871,125.435L50.871,128.987C50.871,129.355 50.927,129.675 51.039,129.947C51.159,130.211 51.327,130.415 51.543,130.559C51.767,130.703 52.035,130.775 52.347,130.775C52.579,130.775 52.791,130.739 52.983,130.667C53.175,130.587 53.339,130.479 53.475,130.343C53.619,130.207 53.731,130.043 53.811,129.851C53.891,129.659 53.931,129.451 53.931,129.227L53.931,125.435L55.167,125.435L55.167,131.735L53.931,131.735L53.931,130.727ZM57.751,128.879C57.785,129.191 57.872,129.471 58.011,129.719C58.195,130.039 58.455,130.287 58.791,130.463C59.127,130.639 59.515,130.727 59.955,130.727C60.267,130.727 60.555,130.675 60.819,130.571C61.091,130.467 61.383,130.279 61.695,130.007L62.319,130.883C62.127,131.075 61.891,131.243 61.611,131.387C61.339,131.531 61.047,131.647 60.735,131.735C60.431,131.815 60.131,131.855 59.835,131.855C59.187,131.855 58.611,131.719 58.107,131.447C57.611,131.167 57.219,130.787 56.931,130.307C56.651,129.827 56.511,129.275 56.511,128.651C56.511,128.155 56.591,127.703 56.751,127.295C56.911,126.887 57.131,126.535 57.411,126.239C57.699,125.935 58.039,125.703 58.431,125.543C58.831,125.375 59.263,125.291 59.727,125.291C60.135,125.291 60.515,125.371 60.867,125.531C61.219,125.683 61.523,125.895 61.779,126.167C62.043,126.439 62.243,126.763 62.379,127.139C62.523,127.507 62.591,127.911 62.583,128.351L62.571,128.879L57.751,128.879ZM57.799,127.895L61.323,127.895L61.323,127.811C61.299,127.547 61.211,127.311 61.059,127.103C60.907,126.895 60.715,126.731 60.483,126.611C60.251,126.491 59.999,126.431 59.727,126.431C59.295,126.431 58.931,126.515 58.635,126.683C58.339,126.843 58.115,127.083 57.963,127.403C57.891,127.55 57.837,127.714 57.799,127.895ZM70.219,126.561L70.347,125.723L71.559,125.723L70.947,129.419C70.923,129.571 70.931,129.699 70.971,129.803C71.019,129.899 71.087,129.971 71.175,130.019C71.263,130.067 71.359,130.091 71.463,130.091C71.703,130.091 71.927,130.011 72.135,129.851C72.343,129.691 72.523,129.471 72.675,129.191C72.827,128.903 72.947,128.575 73.035,128.207C73.123,127.839 73.167,127.451 73.167,127.043C73.167,126.443 73.039,125.931 72.783,125.507C72.527,125.075 72.155,124.747 71.667,124.523C71.187,124.291 70.607,124.175 69.927,124.175C69.111,124.175 68.371,124.291 67.707,124.523C67.043,124.747 66.475,125.079 66.003,125.519C65.539,125.951 65.179,126.479 64.923,127.103C64.675,127.727 64.551,128.435 64.551,129.227C64.551,129.779 64.627,130.271 64.779,130.703C64.939,131.127 65.167,131.491 65.463,131.795C65.759,132.099 66.127,132.327 66.567,132.479C67.007,132.639 67.507,132.719 68.067,132.719C68.443,132.719 68.767,132.691 69.039,132.635C69.311,132.587 69.571,132.507 69.819,132.395C70.067,132.291 70.343,132.159 70.647,131.999L71.091,132.803C70.619,133.043 70.215,133.223 69.879,133.343C69.543,133.471 69.231,133.559 68.943,133.607C68.655,133.655 68.351,133.679 68.031,133.679C67.335,133.679 66.707,133.571 66.147,133.355C65.595,133.147 65.123,132.847 64.731,132.455C64.347,132.071 64.051,131.607 63.843,131.063C63.643,130.519 63.543,129.919 63.543,129.263C63.543,128.327 63.707,127.487 64.035,126.743C64.371,125.991 64.831,125.355 65.415,124.835C66.007,124.307 66.691,123.907 67.467,123.635C68.251,123.355 69.087,123.215 69.975,123.215C70.615,123.215 71.191,123.307 71.703,123.491C72.215,123.667 72.655,123.923 73.023,124.259C73.391,124.595 73.671,124.995 73.863,125.459C74.063,125.915 74.163,126.423 74.163,126.983C74.163,127.527 74.083,128.047 73.923,128.543C73.771,129.031 73.555,129.467 73.275,129.851C72.995,130.227 72.667,130.527 72.291,130.751C71.923,130.967 71.523,131.075 71.091,131.075C70.811,131.075 70.563,131.027 70.347,130.931C70.139,130.827 69.975,130.687 69.855,130.511C69.747,130.352 69.687,130.164 69.677,129.946C69.61,130.062 69.538,130.171 69.459,130.271C69.259,130.535 69.023,130.735 68.751,130.871C68.479,131.007 68.183,131.075 67.863,131.075C67.519,131.075 67.211,130.983 66.939,130.799C66.675,130.615 66.467,130.359 66.315,130.031C66.163,129.703 66.087,129.323 66.087,128.891C66.087,128.515 66.155,128.135 66.291,127.751C66.427,127.367 66.623,127.015 66.879,126.695C67.135,126.375 67.439,126.115 67.791,125.915C68.143,125.715 68.531,125.615 68.955,125.615C69.203,125.615 69.423,125.675 69.615,125.795C69.815,125.915 69.975,126.083 70.095,126.299C70.144,126.381 70.185,126.469 70.219,126.561ZM68.139,130.055C68.411,130.055 68.671,129.971 68.919,129.803C69.175,129.627 69.391,129.407 69.567,129.143C69.751,128.871 69.863,128.591 69.903,128.303C69.927,128.159 69.947,128.035 69.963,127.931C69.979,127.827 69.987,127.727 69.987,127.631C69.987,127.423 69.947,127.247 69.867,127.103C69.787,126.951 69.671,126.835 69.519,126.755C69.375,126.675 69.203,126.635 69.003,126.635C68.691,126.635 68.407,126.751 68.151,126.983C67.895,127.207 67.691,127.499 67.539,127.859C67.387,128.211 67.311,128.575 67.311,128.951C67.311,129.295 67.383,129.567 67.527,129.767C67.679,129.959 67.883,130.055 68.139,130.055ZM80.331,130.738C80.265,130.856 80.177,130.972 80.067,131.087C79.851,131.311 79.579,131.495 79.251,131.639C78.923,131.783 78.587,131.855 78.243,131.855C77.643,131.855 77.107,131.715 76.635,131.435C76.171,131.147 75.803,130.759 75.531,130.271C75.259,129.775 75.123,129.211 75.123,128.579C75.123,127.947 75.255,127.387 75.519,126.899C75.791,126.403 76.159,126.015 76.623,125.735C77.095,125.447 77.623,125.303 78.207,125.303C78.447,125.303 78.679,125.335 78.903,125.399C79.127,125.455 79.335,125.539 79.527,125.651C79.719,125.755 79.891,125.871 80.043,125.999C80.154,126.092 80.25,126.19 80.331,126.292L80.331,125.435L81.567,125.435L81.567,131.351C81.567,131.855 81.491,132.299 81.339,132.683C81.195,133.075 80.983,133.403 80.703,133.667C80.423,133.939 80.083,134.143 79.683,134.279C79.283,134.423 78.831,134.495 78.327,134.495C77.879,134.495 77.431,134.423 76.983,134.279C76.543,134.143 76.187,133.963 75.915,133.739L76.371,132.779C76.531,132.899 76.719,133.003 76.935,133.091C77.151,133.187 77.379,133.259 77.619,133.307C77.859,133.363 78.095,133.391 78.327,133.391C78.767,133.391 79.135,133.319 79.431,133.175C79.727,133.031 79.951,132.819 80.103,132.539C80.255,132.259 80.331,131.911 80.331,131.495L80.331,130.738ZM78.375,130.715C78.767,130.715 79.115,130.623 79.419,130.439C79.723,130.255 79.959,130.003 80.127,129.683C80.295,129.363 80.379,128.995 80.379,128.579C80.379,128.163 80.291,127.795 80.115,127.475C79.947,127.147 79.711,126.891 79.407,126.707C79.111,126.523 78.767,126.431 78.375,126.431C77.991,126.431 77.647,126.527 77.343,126.719C77.047,126.903 76.811,127.159 76.635,127.487C76.467,127.807 76.383,128.171 76.383,128.579C76.383,128.987 76.467,129.355 76.635,129.683C76.811,130.003 77.047,130.255 77.343,130.439C77.647,130.623 77.991,130.715 78.375,130.715ZM88.42,126.644C88.505,126.479 88.617,126.324 88.755,126.179C88.915,126.011 89.095,125.863 89.295,125.735C89.495,125.607 89.707,125.507 89.931,125.435C90.155,125.363 90.375,125.327 90.591,125.327C91.063,125.327 91.451,125.423 91.755,125.615C92.067,125.807 92.299,126.099 92.451,126.491C92.611,126.883 92.691,127.371 92.691,127.955L92.691,131.735L91.443,131.735L91.443,128.027C91.443,127.667 91.395,127.375 91.299,127.151C91.211,126.919 91.075,126.747 90.891,126.635C90.707,126.523 90.471,126.467 90.183,126.467C89.959,126.467 89.747,126.507 89.547,126.587C89.355,126.659 89.187,126.763 89.043,126.899C88.899,127.035 88.787,127.195 88.707,127.379C88.627,127.555 88.587,127.751 88.587,127.967L88.587,131.735L87.339,131.735L87.339,128.003C87.339,127.675 87.291,127.399 87.195,127.175C87.099,126.943 86.959,126.767 86.775,126.647C86.591,126.527 86.367,126.467 86.103,126.467C85.879,126.467 85.671,126.507 85.479,126.587C85.287,126.659 85.119,126.763 84.975,126.899C84.831,127.027 84.719,127.183 84.639,127.367C84.559,127.543 84.519,127.735 84.519,127.943L84.519,131.735L83.271,131.735L83.271,125.435L84.519,125.435L84.519,126.43C84.542,126.394 84.566,126.358 84.591,126.323C84.735,126.131 84.907,125.963 85.107,125.819C85.315,125.667 85.535,125.547 85.767,125.459C86.007,125.371 86.251,125.327 86.499,125.327C86.859,125.327 87.175,125.387 87.447,125.507C87.719,125.627 87.943,125.807 88.119,126.047C88.243,126.216 88.344,126.415 88.42,126.644ZM98.967,130.77C98.963,130.776 98.959,130.781 98.955,130.787C98.811,130.987 98.623,131.167 98.391,131.327C98.167,131.487 97.915,131.615 97.635,131.711C97.363,131.807 97.075,131.855 96.771,131.855C96.251,131.855 95.775,131.711 95.343,131.423C94.919,131.135 94.579,130.743 94.323,130.247C94.067,129.751 93.939,129.191 93.939,128.567C93.939,127.935 94.067,127.375 94.323,126.887C94.587,126.391 94.939,126.003 95.379,125.723C95.827,125.443 96.327,125.303 96.879,125.303C97.207,125.303 97.507,125.351 97.779,125.447C98.051,125.543 98.287,125.679 98.487,125.855C98.682,126.012 98.842,126.195 98.967,126.402L98.967,125.435L100.215,125.435L100.215,131.735L98.967,131.735L98.967,130.77ZM97.095,130.715C97.471,130.715 97.803,130.623 98.091,130.439C98.379,130.255 98.603,130.003 98.763,129.683C98.931,129.355 99.015,128.983 99.015,128.567C99.015,128.159 98.931,127.795 98.763,127.475C98.603,127.155 98.379,126.903 98.091,126.719C97.803,126.535 97.471,126.443 97.095,126.443C96.727,126.443 96.399,126.535 96.111,126.719C95.831,126.903 95.607,127.155 95.439,127.475C95.279,127.795 95.199,128.159 95.199,128.567C95.199,128.983 95.279,129.355 95.439,129.683C95.607,130.003 95.831,130.255 96.111,130.439C96.399,130.623 96.727,130.715 97.095,130.715ZM102.147,131.735L102.147,125.435L103.383,125.435L103.383,131.735L102.147,131.735ZM102.747,124.043C102.483,124.043 102.279,123.975 102.135,123.839C101.991,123.703 101.919,123.511 101.919,123.263C101.919,123.031 101.991,122.843 102.135,122.699C102.287,122.555 102.491,122.483 102.747,122.483C103.011,122.483 103.215,122.551 103.359,122.687C103.503,122.823 103.575,123.015 103.575,123.263C103.575,123.495 103.499,123.683 103.347,123.827C103.203,123.971 103.003,124.043 102.747,124.043ZM105.303,131.735L105.303,122.855L106.539,122.855L106.539,131.735L105.303,131.735ZM108.795,131.867C108.531,131.867 108.327,131.791 108.183,131.639C108.039,131.479 107.967,131.255 107.967,130.967C107.967,130.703 108.043,130.487 108.195,130.319C108.347,130.151 108.547,130.067 108.795,130.067C109.059,130.067 109.263,130.147 109.407,130.307C109.551,130.459 109.623,130.679 109.623,130.967C109.623,131.231 109.547,131.447 109.395,131.615C109.243,131.783 109.043,131.867 108.795,131.867ZM113.703,131.855C113.119,131.855 112.595,131.711 112.131,131.423C111.675,131.135 111.311,130.743 111.039,130.247C110.775,129.751 110.643,129.195 110.643,128.579C110.643,127.963 110.775,127.407 111.039,126.911C111.311,126.415 111.675,126.023 112.131,125.735C112.595,125.447 113.119,125.303 113.703,125.303C114.263,125.303 114.771,125.419 115.227,125.651C115.691,125.875 116.043,126.183 116.283,126.575L115.599,127.415C115.471,127.231 115.307,127.063 115.107,126.911C114.907,126.759 114.695,126.639 114.471,126.551C114.247,126.463 114.031,126.419 113.823,126.419C113.439,126.419 113.095,126.515 112.791,126.707C112.495,126.891 112.259,127.147 112.083,127.475C111.907,127.803 111.819,128.171 111.819,128.579C111.819,128.987 111.911,129.355 112.095,129.683C112.279,130.003 112.523,130.259 112.827,130.451C113.131,130.643 113.467,130.739 113.835,130.739C114.051,130.739 114.259,130.703 114.459,130.631C114.667,130.559 114.867,130.451 115.059,130.307C115.251,130.163 115.431,129.987 115.599,129.779L116.283,130.619C116.027,130.979 115.659,131.275 115.179,131.507C114.707,131.739 114.215,131.855 113.703,131.855ZM120.279,131.855C119.663,131.855 119.111,131.715 118.623,131.435C118.143,131.147 117.763,130.759 117.483,130.271C117.203,129.775 117.063,129.211 117.063,128.579C117.063,127.947 117.203,127.387 117.483,126.899C117.763,126.403 118.143,126.015 118.623,125.735C119.111,125.447 119.663,125.303 120.279,125.303C120.887,125.303 121.431,125.447 121.911,125.735C122.399,126.015 122.783,126.403 123.063,126.899C123.343,127.387 123.483,127.947 123.483,128.579C123.483,129.211 123.343,129.775 123.063,130.271C122.783,130.759 122.399,131.147 121.911,131.435C121.431,131.715 120.887,131.855 120.279,131.855ZM120.279,130.727C120.655,130.727 120.991,130.635 121.287,130.451C121.583,130.259 121.815,130.003 121.983,129.683C122.151,129.355 122.231,128.987 122.223,128.579C122.231,128.163 122.151,127.795 121.983,127.475C121.815,127.147 121.583,126.891 121.287,126.707C120.991,126.523 120.655,126.431 120.279,126.431C119.903,126.431 119.563,126.527 119.259,126.719C118.963,126.903 118.731,127.159 118.563,127.487C118.395,127.807 118.315,128.171 118.323,128.579C118.315,128.987 118.395,129.355 118.563,129.683C118.731,130.003 118.963,130.259 119.259,130.451C119.563,130.635 119.903,130.727 120.279,130.727ZM129.952,126.644C130.037,126.479 130.149,126.324 130.287,126.179C130.447,126.011 130.627,125.863 130.827,125.735C131.027,125.607 131.239,125.507 131.463,125.435C131.687,125.363 131.907,125.327 132.123,125.327C132.595,125.327 132.983,125.423 133.287,125.615C133.599,125.807 133.831,126.099 133.983,126.491C134.143,126.883 134.223,127.371 134.223,127.955L134.223,131.735L132.975,131.735L132.975,128.027C132.975,127.667 132.927,127.375 132.831,127.151C132.743,126.919 132.607,126.747 132.423,126.635C132.239,126.523 132.003,126.467 131.715,126.467C131.491,126.467 131.279,126.507 131.079,126.587C130.887,126.659 130.719,126.763 130.575,126.899C130.431,127.035 130.319,127.195 130.239,127.379C130.159,127.555 130.119,127.751 130.119,127.967L130.119,131.735L128.871,131.735L128.871,128.003C128.871,127.675 128.823,127.399 128.727,127.175C128.631,126.943 128.491,126.767 128.307,126.647C128.123,126.527 127.899,126.467 127.635,126.467C127.411,126.467 127.203,126.507 127.011,126.587C126.819,126.659 126.651,126.763 126.507,126.899C126.363,127.027 126.251,127.183 126.171,127.367C126.091,127.543 126.051,127.735 126.051,127.943L126.051,131.735L124.803,131.735L124.803,125.435L126.051,125.435L126.051,126.43C126.074,126.394 126.098,126.358 126.123,126.323C126.267,126.131 126.439,125.963 126.639,125.819C126.847,125.667 127.067,125.547 127.299,125.459C127.539,125.371 127.783,125.327 128.031,125.327C128.391,125.327 128.707,125.387 128.979,125.507C129.251,125.627 129.475,125.807 129.651,126.047C129.775,126.216 129.876,126.415 129.952,126.644Z" style="fill:rgb(229,56,59);"/>
    </g>
</svg>
