<?xml version="1.0" encoding="UTF-8" standalone="no"?>
<!-- Created with Inkscape (http://www.inkscape.org/) -->

<svg
   width="619.04871mm"
   height="50.8508mm"
   viewBox="0 0 619.0487 50.850801"
   version="1.1"
   id="svg5"
   xmlns="http://www.w3.org/2000/svg"
   xmlns:svg="http://www.w3.org/2000/svg">
  <defs
     id="defs2" />
  <path
     id="path1060"
     style="font-size:50.8px;line-height:0ex;font-family:Lexend;-inkscape-font-specification:Lexend;fill:#e5383b;stroke-width:1.058;stroke-linecap:square"
     d="m 579.17073,39.1668 v -26.67 h 5.2832 v 5.6896 l -0.9652,0.6096 q 0.4064,-1.3208 1.27,-2.54 0.9144,-1.2192 2.1844,-2.1336 1.3208,-0.9652 2.794,-1.524 1.524,-0.5588 3.0988,-0.5588 2.286,0 4.0132,0.762 1.7272,0.762 2.8448,2.286 1.1176,1.524 1.6256,3.81 l -0.8128,-0.2032 0.3556,-0.8636 q 0.5588,-1.1684 1.524,-2.1844 1.016,-1.0668 2.286,-1.8796 1.27,-0.8128 2.6924,-1.27 1.4224,-0.4572 2.794,-0.4572 2.9972,0 4.9276,1.2192 1.9812,1.2192 2.9464,3.7084 1.016,2.4892 1.016,6.1976 v 16.002 h -5.2832 V 23.469599 q 0,-2.285999 -0.6096,-3.708399 -0.5588,-1.4732 -1.7272,-2.1844 -1.1684,-0.7112 -2.9972,-0.7112 -1.4224,0 -2.6924,0.508 -1.2192,0.4572 -2.1336,1.3208 -0.9144,0.8636 -1.4224,2.031999 -0.508,1.117601 -0.508,2.489201 v 15.951199 h -5.2832 v -15.7988 q 0,-2.0828 -0.6096,-3.505199 -0.6096,-1.4732 -1.778,-2.2352 -1.1684,-0.762 -2.8448,-0.762 -1.4224,0 -2.6416,0.508 -1.2192,0.4572 -2.1336,1.3208 -0.9144,0.8128 -1.4224,1.981199 -0.508,1.1176 -0.508,2.4384 v 16.0528 z m -19.15161,0.508 q -3.9116,0 -7.0104,-1.778001 -3.048,-1.8288 -4.826,-4.927599 -1.778,-3.1496 -1.778,-7.1628 0,-4.0132 1.778,-7.112 1.778,-3.1496 4.826,-4.9276 3.0988,-1.8288 7.0104,-1.8288 3.8608,0 6.9088,1.8288 3.0988,1.778 4.8768,4.9276 1.778,3.0988 1.778,7.112 0,4.0132 -1.778,7.1628 -1.778,3.0988 -4.8768,4.927599 -3.048,1.778001 -6.9088,1.778001 z m 0,-4.7752 q 2.3876,0 4.2672,-1.1684 1.8796,-1.2192 2.9464,-3.2512 1.0668,-2.0828 1.016,-4.6736 0.0508,-2.6416 -1.016,-4.6736 -1.0668,-2.0828 -2.9464,-3.2512 -1.8796,-1.1684 -4.2672,-1.1684 -2.3876,0 -4.318,1.2192 -1.8796,1.1684 -2.9464,3.2512 -1.0668,2.032 -1.016,4.6228 -0.0508,2.5908 1.016,4.6736 1.0668,2.032 2.9464,3.2512 1.9304,1.1684 4.318,1.1684 z m -27.83838,4.7752 q -3.7084,0 -6.6548,-1.8288 -2.8956,-1.8288 -4.6228,-4.978401 -1.6764,-3.1496 -1.6764,-7.061199 0,-3.9116 1.6764,-7.0612 1.7272,-3.1496 4.6228,-4.9784 2.9464,-1.8288 6.6548,-1.8288 3.556,0 6.4516,1.4732 2.9464,1.4224 4.4704,3.9116 l -2.8956,3.555999 q -0.8128,-1.168399 -2.0828,-2.133599 -1.27,-0.9652 -2.6924,-1.524 -1.4224,-0.5588 -2.7432,-0.5588 -2.4384,0 -4.3688,1.2192 -1.8796,1.1684 -2.9972,3.251199 -1.1176,2.082801 -1.1176,4.673601 0,2.5908 1.1684,4.6736 1.1684,2.032 3.0988,3.2512 1.9304,1.2192 4.2672,1.2192 1.3716,0 2.6416,-0.4572 1.3208,-0.4572 2.54,-1.3716 1.2192,-0.9144 2.286,-2.2352 l 2.8956,3.556 q -1.6256,2.286 -4.6736,3.759199 -2.9972,1.473201 -6.2484,1.473201 z m -20.77725,0.0508 q -1.6764,0 -2.5908,-0.9652 -0.9144,-1.016001 -0.9144,-2.844801 0,-1.6764 0.9652,-2.7432 0.9652,-1.0668 2.54,-1.0668 1.6764,0 2.5908,1.016001 0.9144,0.965199 0.9144,2.793999 0,1.6764 -0.9652,2.7432 -0.9652,1.066801 -2.54,1.066801 z M 496.62072,39.166799 V 1.5748 h 5.2324 v 37.592 z m -13.36037,0 V 12.4968 h 5.2324 v 26.67 z m 2.54,-32.5627991 q -1.6764,0 -2.5908,-0.8636 -0.9144,-0.8636 -0.9144,-2.4383999 0,-1.4732 0.9144,-2.3876 Q 484.17475,0 485.80035,0 q 1.6764,0 2.5908,0.8636 0.9144,0.8636 0.9144,2.4384 0,1.4731999 -0.9652,2.3875999 -0.9144,0.9144 -2.54,0.9144 z M 460.50198,39.6748 q -3.302,0 -6.0452,-1.8288 -2.6924,-1.8288 -4.318,-4.978401 -1.6256,-3.1496 -1.6256,-7.111999 0,-4.013201 1.6256,-7.112 1.6764,-3.1496 4.4704,-4.9276 2.8448,-1.778 6.35,-1.778 2.0828,0 3.81,0.6096 1.7272,0.6096 2.9972,1.7272 1.3208,1.0668 2.1336,2.4892 0.8636,1.4224 1.0668,3.048 l -1.1684,-0.4064 v -6.9088 h 5.2832 v 26.67 h -5.2832 v -6.35 l 1.2192,-0.3556 q -0.3048,1.3716 -1.27,2.6924 -0.9144,1.27 -2.3876,2.286 -1.4224,1.016 -3.2004,1.6256 -1.7272,0.6096 -3.6576,0.6096 z m 1.3716,-4.826001 q 2.3876,0 4.2164,-1.168399 1.8288,-1.1684 2.8448,-3.2004 1.0668,-2.0828 1.0668,-4.7244 0,-2.590801 -1.0668,-4.6228 -1.016,-2.032 -2.8448,-3.2004 -1.8288,-1.1684 -4.2164,-1.1684 -2.3368,0 -4.1656,1.1684 -1.778,1.1684 -2.8448,3.2004 -1.016,2.031999 -1.016,4.6228 0,2.6416 1.016,4.7244 1.0668,2.032 2.8448,3.2004 1.8288,1.168399 4.1656,1.168399 z m -58.52158,4.318 V 12.4968 h 5.2832 v 5.6896 L 407.67,18.796 q 0.4064,-1.3208 1.27,-2.54 0.9144,-1.2192 2.1844,-2.1336 1.3208,-0.9652 2.794,-1.524 1.524,-0.5588 3.0988,-0.5588 2.286,0 4.0132,0.762 1.7272,0.762 2.8448,2.286 1.1176,1.524 1.6256,3.81 l -0.8128,-0.2032 0.3556,-0.8636 q 0.5588,-1.1684 1.524,-2.1844 1.016,-1.0668 2.286,-1.8796 1.27,-0.8128 2.6924,-1.27 1.4224,-0.4572 2.794,-0.4572 2.9972,0 4.9276,1.2192 1.9812,1.2192 2.9464,3.7084 1.016,2.4892 1.016,6.1976 v 16.002 h -5.2832 V 23.469599 q 0,-2.285999 -0.6096,-3.708399 -0.5588,-1.4732 -1.7272,-2.1844 -1.1684,-0.7112 -2.9972,-0.7112 -1.4224,0 -2.6924,0.508 -1.2192,0.4572 -2.1336,1.3208 -0.9144,0.8636 -1.4224,2.031999 -0.508,1.117601 -0.508,2.489201 v 15.951199 h -5.2832 v -15.7988 q 0,-2.0828 -0.6096,-3.505199 -0.6096,-1.4732 -1.778,-2.2352 -1.1684,-0.762 -2.8448,-0.762 -1.4224,0 -2.6416,0.508 -1.2192,0.4572 -2.1336,1.3208 -0.9144,0.8128 -1.4224,1.981199 -0.508,1.1176 -0.508,2.4384 v 16.0528 z m -20.92961,11.684 q -2.8448,0 -5.6896,-0.9144 -2.794,-0.863599 -4.5212,-2.286 l 1.9304,-4.064 q 1.016,0.762 2.3876,1.3208 1.3716,0.6096 2.8956,0.9144 1.524,0.3556 2.9972,0.3556 2.794,0 4.6736,-0.9144 1.8796,-0.9144 2.8448,-2.6924 0.9652,-1.777999 0.9652,-4.4196 v -5.1308 l 0.5588,0.3556 q -0.254,1.5748 -1.6764,3.048 -1.3716,1.4224 -3.4544,2.3368 -2.0828,0.9144 -4.2672,0.9144 -3.81,0 -6.8072,-1.778 -2.9464,-1.8288 -4.6736,-4.927599 -1.7272,-3.149601 -1.7272,-7.162801 0,-4.0132 1.6764,-7.111999 1.7272,-3.1496 4.6736,-4.9276 2.9972,-1.8288 6.7056,-1.8288 1.524,0 2.9464,0.4064 1.4224,0.3556 2.6416,1.0668 1.2192,0.6604 2.1844,1.4732 0.9652,0.8128 1.5748,1.7272 0.6096,0.9144 0.762,1.7272 l -1.1176,0.4064 v -6.2484 h 5.2324 v 25.0444 q 0,3.2004 -0.9652,5.638799 -0.9144,2.4892 -2.6924,4.1656 -1.778,1.727201 -4.318,2.5908 -2.54,0.9144 -5.7404,0.9144 z m 0.2032,-16.002 q 2.4892,0 4.4196,-1.1684 1.9304,-1.168399 2.9972,-3.2004 1.0668,-2.032 1.0668,-4.6736 0,-2.6416 -1.1176,-4.6736 -1.0668,-2.082799 -2.9972,-3.251199 -1.8796,-1.1684 -4.3688,-1.1684 -2.4384,0 -4.3688,1.2192 -1.8796,1.1684 -2.9972,3.251199 -1.0668,2.032 -1.0668,4.6228 0,2.5908 1.0668,4.6736 1.1176,2.032 2.9972,3.2004 1.9304,1.1684 4.3688,1.1684 z m -43.7896,12.5476 q -4.4196,0 -7.9756,-1.3716 -3.5052,-1.3208 -5.9944,-3.81 -2.4384,-2.4384 -3.7592,-5.8928 -1.27,-3.4544 -1.27,-7.62 0,-5.9436 2.0828,-10.667999 2.1336,-4.7752 5.842,-8.0772001 3.7592,-3.3528 8.6868,-5.08 4.9784,-1.7779999 10.6172,-1.7779999 4.064,0 7.3152,1.1683999 3.2512,1.1176 5.588,3.2512 2.3368,2.1336 3.556,5.0800001 1.27,2.8956 1.27,6.4516 0,3.454399 -1.016,6.603999 -0.9652,3.0988 -2.7432,5.5372 -1.778,2.3876 -4.1656,3.81 -2.3368,1.3716 -5.08,1.3716 -1.778,0 -3.1496,-0.6096 -1.3208,-0.6604 -2.0828,-1.778 -0.762,-1.1176 -0.762,-2.6924 0,-0.762 0.1524,-1.6256 0.2032,-0.8636 0.3048,-1.778 l 0.7112,1.016 q -0.762,2.3876 -2.0828,4.064001 -1.27,1.6764 -2.9972,2.539999 -1.7272,0.8636 -3.7592,0.8636 -2.1844,0 -3.9116,-1.1684 -1.6764,-1.168399 -2.6416,-3.2512 -0.9652,-2.0828 -0.9652,-4.826 0,-2.3876 0.8636,-4.826 0.8636,-2.438399 2.4892,-4.470399 1.6256,-2.032 3.8608,-3.302 2.2352,-1.27 4.9276,-1.27 1.5748,0 2.794,0.762 1.27,0.762 2.032,2.1336 0.8128,1.3716 0.9652,3.2004 l -1.2192,2.997199 1.3208,-8.635999 h 5.1308 l -2.5908,15.646399 q -0.1524,0.9652 0.1016,1.6256 0.3048,0.6096 0.8636,0.9144 0.5588,0.3048 1.2192,0.3048 1.524,0 2.8448,-1.016 1.3208,-1.016 2.286,-2.794 0.9652,-1.8288 1.524,-4.1656 0.5588,-2.3368 0.5588,-4.927599 0,-3.81 -1.6256,-6.5024 -1.6256,-2.7432 -4.7244,-4.1656001 -3.048,-1.4732 -7.366,-1.4732 -5.1816,0 -9.398,1.4732 -4.2164,1.4224001 -7.2136,4.2164001 -2.9464,2.7432 -4.572,6.7056 -1.5748,3.962399 -1.5748,8.991599 0,3.5052 0.9652,6.2484 1.016,2.6924 2.8956,4.6228 1.8796,1.9304 4.6736,2.8956 2.794,1.016 6.35,1.016 2.3876,0 4.1148,-0.3556 1.7272,-0.3048 3.302,-1.016 1.5748,-0.6604 3.5052,-1.6764 l 1.8796,3.4036 q -2.9972,1.524 -5.1308,2.286 -2.1336,0.8128 -3.9624,1.1176 -1.8288,0.3048 -3.8608,0.3048 z m 0.4572,-15.341599 q 1.7272,0 3.302,-1.066801 1.6256,-1.1176 2.7432,-2.794 1.1684,-1.7272 1.4224,-3.556 0.1524,-0.9144 0.254,-1.5748 0.1016,-0.6604 0.1016,-1.27 0,-1.3208 -0.508,-2.235199 -0.508,-0.9652 -1.4732,-1.4732 -0.9144,-0.508 -2.1844,-0.508 -1.9812,0 -3.6068,1.4732 -1.6256,1.422399 -2.5908,3.708399 -0.9652,2.2352 -0.9652,4.6228 0,2.1844 0.9144,3.4544 0.9652,1.219201 2.5908,1.219201 z m -36.93163,7.619999 q -4.064,0 -7.0104,-2.2352 -2.8956,-2.2352 -4.4704,-6.2992 -1.5748,-4.114799 -1.5748,-9.753599 0,-5.6388 1.5748,-9.7028 1.5748,-4.1148001 4.4704,-6.3500001 2.9464,-2.2351999 7.0104,-2.2351999 4.064,0 7.0104,2.2351999 2.9464,2.2352 4.5212,6.3500001 1.5748,4.064 1.5748,9.7028 0,5.6388 -1.5748,9.753599 -1.5748,4.064 -4.5212,6.2992 -2.9464,2.2352 -7.0104,2.2352 z m 0,-4.9784 q 3.7084,0 5.7404,-3.4544 2.032,-3.5052 2.032,-9.8552 0,-6.349999 -2.032,-9.804399 -2.032,-3.5052001 -5.7404,-3.5052001 -3.7084,0 -5.7404,3.5052001 -2.032,3.4544 -2.032,9.804399 0,6.35 2.032,9.8552 2.032,3.4544 5.7404,3.4544 z m -58.62317,4.4704 V 12.4968 h 5.28319 v 5.6896 l -0.9652,0.6096 q 0.4064,-1.3208 1.27,-2.54 0.9144,-1.2192 2.1844,-2.1336 1.3208,-0.9652 2.794,-1.524 1.524,-0.5588 3.0988,-0.5588 2.286,0 4.0132,0.762 1.7272,0.762 2.8448,2.286 1.1176,1.524 1.6256,3.81 l -0.8128,-0.2032 0.3556,-0.8636 q 0.5588,-1.1684 1.524,-2.1844 1.016,-1.0668 2.286,-1.8796 1.27,-0.8128 2.6924,-1.27 1.4224,-0.4572 2.794,-0.4572 2.9972,0 4.9276,1.2192 1.9812,1.2192 2.9464,3.7084 1.016,2.4892 1.016,6.1976 v 16.002 h -5.2832 V 23.469599 q 0,-2.285999 -0.6096,-3.708399 -0.5588,-1.4732 -1.7272,-2.1844 -1.1684,-0.7112 -2.9972,-0.7112 -1.4224,0 -2.6924,0.508 -1.2192,0.4572 -2.1336,1.3208 -0.9144,0.8636 -1.4224,2.031999 -0.508,1.117601 -0.508,2.489201 v 15.951199 h -5.2832 v -15.7988 q 0,-2.0828 -0.6096,-3.505199 -0.6096,-1.4732 -1.778,-2.2352 -1.1684,-0.762 -2.8448,-0.762 -1.4224,0 -2.6416,0.508 -1.2192,0.4572 -2.1336,1.3208 -0.9144,0.8128 -1.4224,1.981199 -0.508,1.1176 -0.508,2.4384 v 16.0528 z m -20.92961,11.684 q -2.8448,0 -5.6896,-0.9144 -2.794,-0.863599 -4.5212,-2.286 l 1.9304,-4.064 q 1.016,0.762 2.3876,1.3208 1.3716,0.6096 2.8956,0.9144 1.524,0.3556 2.9972,0.3556 2.794,0 4.6736,-0.9144 1.8796,-0.9144 2.8448,-2.6924 0.9652,-1.777999 0.9652,-4.4196 v -5.1308 l 0.5588,0.3556 q -0.254,1.5748 -1.6764,3.048 -1.3716,1.4224 -3.4544,2.3368 -2.0828,0.9144 -4.2672,0.9144 -3.81,0 -6.8072,-1.778 -2.9464,-1.8288 -4.6736,-4.927599 -1.7272,-3.149601 -1.7272,-7.162801 0,-4.0132 1.6764,-7.111999 1.7272,-3.1496 4.6736,-4.9276 2.9972,-1.8288 6.7056,-1.8288 1.524,0 2.9464,0.4064 1.4224,0.3556 2.6416,1.0668 1.2192,0.6604 2.1844,1.4732 0.9652,0.8128 1.5748,1.7272 0.6096,0.9144 0.762,1.7272 l -1.1176,0.4064 v -6.2484 h 5.2324 v 25.0444 q 0,3.2004 -0.9652,5.638799 -0.9144,2.4892 -2.6924,4.1656 -1.778,1.727201 -4.318,2.5908 -2.54,0.9144 -5.7404,0.9144 z m 0.2032,-16.002 q 2.4892,0 4.4196,-1.1684 1.9304,-1.168399 2.9972,-3.2004 1.0668,-2.032 1.0668,-4.6736 0,-2.6416 -1.1176,-4.6736 -1.0668,-2.082799 -2.9972,-3.251199 -1.8796,-1.1684 -4.3688,-1.1684 -2.4384,0 -4.3688,1.2192 -1.8796,1.1684 -2.9972,3.251199 -1.0668,2.032 -1.0668,4.6228 0,2.5908 1.0668,4.6736 1.1176,2.032 2.9972,3.2004 1.9304,1.1684 4.3688,1.1684 z m -59.02958,4.318 V 12.4968 h 5.2832 v 5.6896 l -0.9652,0.6096 q 0.4064,-1.3208 1.27,-2.54 0.9144,-1.2192 2.1844,-2.1336 1.3208,-0.9652 2.794,-1.524 1.524,-0.5588 3.0988,-0.5588 2.286,0 4.0132,0.762 1.7272,0.762 2.8448,2.286 1.1176,1.524 1.6256,3.81 l -0.8128,-0.2032 0.3556,-0.8636 q 0.5588,-1.1684 1.524,-2.1844 1.016,-1.0668 2.286,-1.8796 1.27,-0.8128 2.6924,-1.27 1.4224,-0.4572 2.794,-0.4572 2.9972,0 4.9276,1.2192 1.9812,1.2192 2.9464,3.7084 1.016,2.4892 1.016,6.1976 v 16.002 h -5.2832 V 23.469599 q 0,-2.285999 -0.6096,-3.708399 -0.5588,-1.4732 -1.7272,-2.1844 -1.1684,-0.7112 -2.9972,-0.7112 -1.4224,0 -2.6924,0.508 -1.2192,0.4572 -2.1336,1.3208 -0.9144,0.8636 -1.4224,2.031999 -0.508,1.117601 -0.508,2.489201 v 15.951199 h -5.2832 v -15.7988 q 0,-2.0828 -0.6096,-3.505199 -0.6096,-1.4732 -1.778,-2.2352 -1.1684,-0.762 -2.8448,-0.762 -1.4224,0 -2.6416,0.508 -1.2192,0.4572 -2.1336,1.3208 -0.9144,0.8128 -1.4224,1.981199 -0.508,1.1176 -0.508,2.4384 v 16.0528 z m -17.22121,0.508 q -4.1148,0 -7.3152,-1.7272 -3.1496,-1.777999 -4.9784,-4.825999 -1.778,-3.048001 -1.778,-7.010401 0,-3.1496 1.016,-5.7404 1.016,-2.590799 2.794,-4.470399 1.8288,-1.9304 4.318,-2.9464 2.54,-1.0668 5.4864,-1.0668 2.5908,0 4.826,1.016 2.2352,0.9652 3.8608,2.6924 1.6764,1.7272 2.54,4.1148 0.9144,2.336799 0.8636,5.130799 l -0.0508,2.2352 h -21.7932 l -1.1684,-4.1656 h 18.4404 l -0.762,0.8636 v -1.2192 q -0.1524,-1.6764 -1.1176,-2.997199 -0.9652,-1.3208 -2.4384,-2.0828 -1.4732,-0.762 -3.2004,-0.762 -2.7432,0 -4.6228,1.0668 -1.8796,1.016 -2.8448,3.047999 -0.9652,1.9812 -0.9652,4.9276 0,2.794 1.1684,4.8768 1.1684,2.032 3.302,3.1496 2.1336,1.1176 4.9276,1.1176 1.9812,0 3.6576,-0.6604 1.7272,-0.6604 3.7084,-2.3876 l 2.6416,3.7084 q -1.2192,1.2192 -2.9972,2.1336 -1.7272,0.9144 -3.7084,1.4732 -1.9304,0.508 -3.81,0.508 z m -33.83278,0 q -2.8448,0 -4.9784,-1.3208 -2.0828,-1.320799 -3.2512,-3.708399 -1.1176,-2.387601 -1.1176,-5.689601 V 12.4968 h 5.2324 v 15.036799 q 0,2.336801 0.7112,4.064 0.762,1.676401 2.1336,2.590801 1.4224,0.9144 3.4036,0.9144 1.4732,0 2.6924,-0.4572 1.2192,-0.508 2.0828,-1.3716 0.9144,-0.863601 1.4224,-2.0828 0.508,-1.2192 0.508,-2.6416 V 12.4968 h 5.2324 v 26.67 h -5.2324 v -5.588 l 0.9144,-0.6096 q -0.6096,1.879599 -2.0828,3.403599 -1.4224,1.524 -3.4036,2.4384 -1.9812,0.863601 -4.2672,0.8636 z m -29.718,-0.508 L 71.93281,12.4968 h 5.6388 l 8.128,19.964399 -0.9652,0.4572 8.6868,-20.421599 h 5.384799 l -11.836399,26.67 z m -24.942841,0 V 5.6895999 h 5.2324 V 39.1668 Z M 52.73037,17.5768 v -5.08 h 16.967199 v 5.08 z m -15.08762,22.098 q -4.1148,0 -7.3152,-1.7272 -3.1496,-1.778 -4.9784,-4.826 -1.778,-3.048 -1.778,-7.0104 0,-3.1496 1.016,-5.740401 1.016,-2.590799 2.794,-4.470399 1.8288,-1.9304 4.318,-2.9464 2.54,-1.0668 5.4864,-1.0668 2.590799,0 4.825999,1.016 2.2352,0.9652 3.8608,2.6924 1.6764,1.7272 2.54,4.1148 0.9144,2.336799 0.8636,5.1308 l -0.0508,2.235199 H 27.43195 l -1.1684,-4.1656 h 18.440399 l -0.762,0.8636 v -1.2192 q -0.1524,-1.6764 -1.1176,-2.997199 -0.9652,-1.3208 -2.4384,-2.0828 -1.4732,-0.762 -3.200399,-0.762 -2.7432,0 -4.6228,1.0668 -1.8796,1.016 -2.8448,3.047999 -0.9652,1.9812 -0.9652,4.9276 0,2.794 1.1684,4.8768 1.1684,2.032001 3.302,3.1496 2.1336,1.1176 4.9276,1.1176 1.981199,0 3.657599,-0.6604 1.7272,-0.660399 3.7084,-2.3876 l 2.6416,3.708401 q -1.2192,1.2192 -2.9972,2.1336 -1.7272,0.9144 -3.7084,1.473199 -1.9304,0.508 -3.809999,0.508001 z M 0,39.1668 V 34.798 L 13.7668,16.4084 V 17.018 H 0 V 12.4968 H 19.4564 V 16.764 L 5.8928,34.8996 5.6896,34.6456 h 14.0716 v 4.5212 z" />
</svg>
