<?xml version="1.0" encoding="UTF-8" standalone="no"?>
<!DOCTYPE svg PUBLIC "-//W3C//DTD SVG 1.1//EN" "http://www.w3.org/Graphics/SVG/1.1/DTD/svg11.dtd">
<svg width="100%" height="100%" viewBox="0 0 90 90" version="1.1" xmlns="http://www.w3.org/2000/svg" xmlns:xlink="http://www.w3.org/1999/xlink" xml:space="preserve" xmlns:serif="http://www.serif.com/" style="fill-rule:evenodd;clip-rule:evenodd;stroke-linejoin:round;stroke-miterlimit:2;">
    <path d="M31.81,8C36.796,8 40.898,12.102 40.898,17.088L40.898,79.213C40.898,81.29 39.188,83 37.111,83C37.111,83 28.78,83 28.78,83C26.703,83 24.993,81.29 24.993,79.213L24.993,27.537C24.993,25.46 23.283,23.75 21.206,23.75L19.691,23.75C17.614,23.751 15.905,25.46 15.905,27.537L15.905,79.213C15.905,81.29 14.195,83 12.118,83L3.787,83C1.71,83 0,81.29 0,79.213L0,11.787C-0,9.71 1.71,8 3.787,8L31.81,8ZM80.912,8C85.898,8 90,12.102 90,17.088L90,32.721C89.999,34.383 88.632,35.75 86.97,35.75L76.368,35.75C74.706,35.749 73.339,34.382 73.339,32.72L73.339,26.022C73.339,24.776 72.313,23.75 71.067,23.75L67.28,23.75C66.034,23.75 65.008,24.776 65.008,26.022L65.008,64.985C65.008,65.822 65.686,66.5 66.523,66.5L72.582,66.5C73.418,66.5 74.096,65.822 74.096,64.985L74.096,57.5L72.582,57.5C70.92,57.5 69.552,56.132 69.552,54.47L69.552,44.78C69.552,43.118 70.92,41.75 72.582,41.75L86.972,41.75C88.633,41.751 90,43.119 90,44.78L90,73.912C90,78.898 85.898,83 80.912,83C80.912,83 58.189,83 58.189,83C53.203,83 49.101,78.898 49.101,73.912L49.101,17.088C49.101,12.102 53.203,8 58.189,8C58.19,8 58.19,8 58.191,8L80.912,8Z" style="fill:rgb(229,56,59);"/>
</svg>
