<?xml version="1.0" encoding="UTF-8" standalone="no"?>
<!-- Created with Inkscape (http://www.inkscape.org/) -->

<svg
   width="661.58881mm"
   height="168.00008mm"
   viewBox="0 0 661.58881 168.00007"
   version="1.1"
   id="svg5"
   xml:space="preserve"
   xmlns="http://www.w3.org/2000/svg"
   xmlns:svg="http://www.w3.org/2000/svg"><defs
   id="defs2" />
     <path
   id="path441"
   style="font-weight:bold;font-size:86.5493px;line-height:0ex;font-family:'Lexend Mega';-inkscape-font-specification:'Lexend Mega Bold';fill:#0b090a;stroke-width:1.80254;stroke-linecap:square;fill-opacity:1"
   d="M 610.78439,114.2923 V 53.707792 h 49.93894 v 12.549649 h -35.65831 v 35.485219 h 36.52381 v 12.54964 z m 7.44324,-24.839647 V 77.50885 h 38.60099 v 11.943803 z m -61.2768,25.358947 q -8.91458,0 -15.66542,-3.54852 -6.6643,-3.54852 -10.47247,-9.69352 -3.72162,-6.231554 -3.72162,-14.19409 V 53.707792 h 14.88648 v 33.148382 q 0,4.327465 1.90409,7.702888 1.99063,3.375423 5.36605,5.279508 3.46198,1.90409 7.70289,1.90409 4.41402,0 7.87599,-1.90409 3.46197,-1.904085 5.4526,-5.279508 2.07719,-3.375423 2.07719,-7.702888 V 53.707792 h 14.36718 V 87.37547 q 0,7.962536 -3.80817,14.19409 -3.72162,6.145 -10.47246,9.69352 -6.6643,3.54852 -15.49233,3.54852 z m -85.5973,-0.5193 -26.57064,-60.584508 h 15.23268 l 12.8093,30.465354 q 0.69239,1.730986 1.64443,3.894719 0.95205,2.077183 1.90409,4.500563 1.03859,2.336831 1.90408,4.93331 0.95205,2.509932 1.64444,5.106412 h -3.02923 q 1.0386,-3.288876 2.16374,-6.318102 1.21169,-3.115775 2.42338,-6.058451 1.29824,-3.029225 2.42338,-5.971902 l 12.29,-30.551903 h 15.05958 L 485.02832,114.2923 Z m -75.03819,0 V 66.690187 H 374.50492 V 53.707792 h 58.85352 V 66.690187 H 411.02872 V 114.2923 Z m -88.88617,0 V 53.707792 h 49.93895 v 12.549649 h -35.65831 v 35.485219 h 36.5238 v 12.54964 z m 7.44324,-24.839647 V 77.50885 H 353.4734 V 89.452653 Z M 231.00617,114.2923 v -9.78007 l 38.94718,-43.274649 6.40465,6.058451 h -43.10155 v -13.58824 h 53.40092 v 9.693522 l -38.86064,43.361196 -6.40464,-5.4526 h 46.21732 V 114.2923 Z M 83.138595,0 55.425557,16.000057 124.70763,55.999683 96.995113,71.99974 124.70815,87.999797 180.13319,55.999683 Z M 55.425557,23.756173 v 8.243424 l 48.497303,27.756445 6.92825,-3.999755 z M 180.13371,63.756832 124.70918,95.758496 96.994596,79.756372 96.99408,87.999797 124.70712,103.99985 180.13267,71.99974 Z M 55.425557,63.999711 0,95.999825 96.994596,152.00002 124.70763,135.99997 55.425557,95.999825 69.282076,87.999797 83.138595,79.999768 Z m 27.713038,23.75669 -13.856519,7.999511 6.928259,4.000273 6.92826,-4.000273 z M 0,103.75594 v 8.24394 l 96.994596,56.0002 27.713034,-16.00006 v -8.24394 l -27.714067,16.00109 z" /></svg>
