<?xml version="1.0" encoding="UTF-8" standalone="no"?>
<!-- Created with Inkscape (http://www.inkscape.org/) -->

<svg
   width="622.34857mm"
   height="91.715332mm"
   viewBox="0 0 622.34857 91.715329"
   version="1.1"
   id="svg5"
   xml:space="preserve"
   xmlns="http://www.w3.org/2000/svg"
   xmlns:svg="http://www.w3.org/2000/svg"><defs
     id="defs2" /><path
     id="path314"
     style="fill:#0b090a;fill-opacity:1;stroke:none;stroke-width:0.382419px;stroke-linecap:butt;stroke-linejoin:round;stroke-opacity:1"
     d="M 0,0 V 6.551538 H 622.34858 V 0 Z M 0,13.10256 V 39.306645 H 32.75511 L 0,58.960226 V 78.61277 H 98.26532 V 52.408687 H 65.51021 L 98.26532,32.755107 V 13.10256 Z m 104.81634,0 v 65.51021 h 98.26532 V 58.960226 H 131.02043 V 55.68394 h 72.06123 V 36.031393 h -72.06123 v -3.276286 h 72.06123 V 13.10256 Z m 104.81686,0 v 19.652547 h 32.75511 V 78.61277 h 32.7551 V 32.755107 h 32.75511 V 13.10256 Z m 104.81634,0 v 32.755106 l 32.75511,32.755104 h 32.7551 L 412.71538,45.857666 V 13.10256 h -47.49529 v 45.857666 h -3.27526 V 13.10256 Z m 104.81634,0 v 65.51021 h 98.26636 V 45.857666 13.10256 h -47.49581 v 45.857666 h -3.27474 V 13.10256 Z m 104.81738,0 v 65.51021 h 26.20408 72.06124 V 58.960226 H 550.28734 V 55.68394 h 72.06124 V 36.031393 h -72.06124 v -3.276286 h 72.06124 V 13.10256 H 550.28734 Z M 0,85.16379 v 6.55154 h 622.34858 v -6.55154 z" /></svg>
