<?xml version="1.0" encoding="UTF-8" standalone="no"?>
<!-- Created with Inkscape (http://www.inkscape.org/) -->

<svg
   width="853.35516mm"
   height="168.00008mm"
   viewBox="0 0 853.35516 168.00007"
   version="1.1"
   id="svg5"
   xml:space="preserve"
   xmlns="http://www.w3.org/2000/svg"
   xmlns:svg="http://www.w3.org/2000/svg"><defs
     id="defs2" /><path
     id="path2661"
     style="fill:#E5383B;fill-opacity:1;stroke:none;stroke-width:0.382419px;stroke-linecap:butt;stroke-linejoin:round;stroke-opacity:1"
     d="M 83.138595 0 L 55.425557 16.000057 L 124.70763 55.999683 L 96.994596 71.99974 L 124.70763 87.999797 L 180.13319 55.999683 L 83.138595 0 z M 55.425557 19.7559 L 55.425557 31.999597 L 107.38724 61.75592 L 117.77937 55.756287 L 55.425557 19.7559 z M 231.00657 38.68291 L 231.00657 45.234448 L 853.35515 45.234448 L 853.35515 38.68291 L 231.00657 38.68291 z M 231.00657 51.78547 L 231.00657 77.989555 L 263.76168 77.989555 L 231.00657 97.643136 L 231.00657 117.29568 L 329.27189 117.29568 L 329.27189 91.091597 L 296.51678 91.091597 L 329.27189 71.438017 L 329.27189 51.78547 L 231.00657 51.78547 z M 335.82291 51.78547 L 335.82291 71.438017 L 335.82291 74.714303 L 335.82291 94.36685 L 335.82291 97.643136 L 335.82291 117.29568 L 362.027 117.29568 L 434.08823 117.29568 L 434.08823 97.643136 L 362.027 97.643136 L 362.027 94.36685 L 434.08823 94.36685 L 434.08823 74.714303 L 362.027 74.714303 L 362.027 71.438017 L 434.08823 71.438017 L 434.08823 51.78547 L 362.027 51.78547 L 335.82291 51.78547 z M 440.63977 51.78547 L 440.63977 71.438017 L 473.39488 71.438017 L 473.39488 117.29568 L 506.14998 117.29568 L 506.14998 71.438017 L 538.90509 71.438017 L 538.90509 51.78547 L 440.63977 51.78547 z M 545.45611 51.78547 L 545.45611 84.540576 L 578.21122 117.29568 L 610.96632 117.29568 L 643.72195 84.540576 L 643.72195 51.78547 L 596.22666 51.78547 L 596.22666 97.643136 L 592.9514 97.643136 L 592.9514 51.78547 L 545.45611 51.78547 z M 650.27245 51.78547 L 650.27245 117.29568 L 683.02756 117.29568 L 715.7837 117.29568 L 748.53881 117.29568 L 748.53881 84.540576 L 748.53881 51.78547 L 701.043 51.78547 L 701.043 97.643136 L 697.76826 97.643136 L 697.76826 51.78547 L 650.27245 51.78547 z M 755.08983 51.78547 L 755.08983 71.438017 L 755.08983 74.714303 L 755.08983 94.36685 L 755.08983 97.643136 L 755.08983 117.29568 L 781.29391 117.29568 L 853.35515 117.29568 L 853.35515 97.643136 L 781.29391 97.643136 L 781.29391 94.36685 L 853.35515 94.36685 L 853.35515 74.714303 L 781.29391 74.714303 L 781.29391 71.438017 L 853.35515 71.438017 L 853.35515 51.78547 L 781.29391 51.78547 L 755.08983 51.78547 z M 180.13319 59.756042 L 124.70918 91.757707 L 96.994596 75.755583 L 96.99408 87.999797 L 124.70712 103.99985 L 180.13267 71.99974 L 180.13319 59.756042 z M 55.425557 63.999711 L 0 95.999825 L 96.994596 152.00002 L 124.70763 135.99997 L 55.425557 95.999825 L 69.282076 87.999797 L 83.138595 79.999768 L 55.425557 63.999711 z M 83.138078 83.756128 L 62.353817 95.755912 L 72.745947 101.75606 L 83.138595 95.755912 L 83.138078 83.756128 z M 0 99.756185 L 0 111.99988 L 96.994596 168.00008 L 124.70763 152.00002 L 124.70763 139.75633 L 96.993563 155.75742 L 0 99.756185 z M 231.00657 123.8467 L 231.00657 130.39824 L 853.35515 130.39824 L 853.35515 123.8467 L 231.00657 123.8467 z " /></svg>
